<svg version="1" xmlns="http://www.w3.org/2000/svg" x="0" y="0" width="218" height="256" viewBox="0 0 218 256" xml:space="preserve"><path d="M207.1 98.2c-0.8-0.5-1.7-0.9-2.6-1.2 0.1-0.1 0.2-0.2 0.2-0.3 11.5-16.8 14.4-39.6 9.7-59.1 -10.6-43.6-62.7-40-92-17.5 -0.7-2.5-1.7-5-3.9-7.9 -4.7-6.4-12.7-9.7-20.2-11.3C80.4-3.2 63.6 8 56 23.4c-2.2 4.4-5 17-5.5 29.5C40 52.7 29 57.8 20.8 64.4 5.1 76.8-4 91.1 1.7 111.3c3.8 13.3 19.7 32.3 35.8 27.5 0.3-0.1 0.7-0.2 1-0.3 -0.6 13.5 6.7 26.8 13.8 37.6 13.3 20.2 36.9 25.9 59.7 24.5 -0.8 16.1-2.3 32.2-3.2 48.3 -0.6 9.6 14.5 9.6 15.1 0 1-16.8 2.5-33.5 3.3-50.3 1.4-0.3 2.8-0.5 4.1-0.8 30.2-7 74.3-31 84.4-62.3C219.5 123.4 219.7 105.8 207.1 98.2zM200.1 133.7c-4.1 9.1-13.1 16.7-20.6 23.1C165 169.1 146.2 178 127.6 183c0-0.8 0.1-1.6 0.1-2.5 0.1-9.7-15-9.6-15.1 0 0 1.8-0.1 3.6-0.2 5.4 -14.4 1.3-29.4-1.4-40.8-10.6 -7-5.7-12.3-14.8-15.5-23.1 -1.3-3.4-2.8-12.7-1.8-20.4 7.3-4.2 13.2-10 12.4-18.3 -0.5-4.8-4.4-8.5-9.5-7.2 -7.7 1.9-11.9 8.1-14.6 15 -2 0.9-3.9 1.5-4.9 1.8 -13 3.7-21.9-11.7-22.9-22.4 -1.3-13.5 20.7-35.2 36.4-32.8 1.8 9.9 6.5 16.8 16.4 14.3 8.4-2.2 6-13.9-1.4-14.6 0.1-0.1 0.2-0.2 0.3-0.3 0.5 0 0.5-0.2 0.3-0.8 1.2-2.7 1.1-5.9-1.3-8.3 0-0.9-0.1-1.8-0.1-2.7 -0.3-6.2 0.3-12.3 1.6-18.4 2.7-13 11.6-20.7 24.8-21.7 16.7-1.3 15.4 11.4 18.4 21.6 2 6.8 9.9 6.7 13.7 1.8 18.5-23.8 64-31.1 75.7 2.9 4.8 13.9 0.6 31-5.7 43.7 -0.9 1.8-4.7 6.4-7.5 10.4 -4.7 1.2-9 3.7-12.1 7.4 -3 3.6-3 9.2 1.5 11.8 6.9 3.9 13.2 0.3 18.5-5.1 2.5 0.3 4.9 1.5 6.6 4.1C205.2 119.8 202.8 127.8 200.1 133.7z" fill="#96C838"/></svg>